# xmcd
#
# Track frame offsets: 
#        150
#        13550
#        27325
#        43665
#        58365
#        69050
#        84532
#        96902
#        108842
#        122865
#        133007
#
# Disc length: 2414 seconds
#
# Revision: 0
# Processed by: cddbd v1.5PL3 Copyright (c) Steve Scherf et al.
# Submitted via: ExactAudioCopy v0.95a3
#
DISCID=90096c0b
DTITLE=Ray Flacke - Untiltled Island
DYEAR=1991
DGENRE=Country
TTITLE0=Squeeze The Weasel
TTITLE1=Untitled Island
TTITLE2=Wring That Neck
TTITLE3=Devotion To The Dog
TTITLE4=Main Street Breakdown
TTITLE5=Bandits On Bourbon
TTITLE6=South Downs Gallop
TTITLE7=Raison D'Etre
TTITLE8=Going On After The Theatre
TTITLE9=Blarneystoned
TTITLE10=New Land Shining - A Suite
EXTD=
EXTT0=
EXTT1=
EXTT2=
EXTT3=
EXTT4=
EXTT5=
EXTT6=
EXTT7=
EXTT8=
EXTT9=
EXTT10=
PLAYORDER=
